<?xml version="1.0" encoding="UTF-8"?>
<svg width="512" height="512" viewBox="0 0 512 512" fill="none" xmlns="http://www.w3.org/2000/svg">
  <!-- Coffee cup -->
  <path d="M128 96h256c17.7 0 32 14.3 32 32v192c0 53-43 96-96 96H192c-53 0-96-43-96-96V128c0-17.7 14.3-32 32-32z" fill="#6F4E37"/>
  <!-- Steam -->
  <path d="M192 64c0-17.7 14.3-32 32-32h64c17.7 0 32 14.3 32 32v32H192V64z" fill="#8B4513"/>
  <!-- Handle -->
  <path d="M384 160c17.7 0 32 14.3 32 32v64c0 17.7-14.3 32-32 32h-32V160h32z" fill="#6F4E37"/>
</svg> 